PathFileType	4	(X/Y/Z)	D:\																																																																			
DataRate	CameraRate	NumFrames	NumMarkers	Units	OrigDataRate	OrigDataStartFrame	OrigNumFrames																																																															
240	240	5	21	mm	240	729	833																																																															
Frame#	Time	Top.Head			Front.Head			Rear.Head			R.Shoulder			R.Elbow			R.Wrist			L.Shoulder			L.Elbow			L.Wrist			Offset1			R.ASIS			L.ASIS			V.Sacral			R.Knee			R.Ankle			R.Toe			R.Heel			L.Knee			L.Ankle			L.Toe			L.Heel			V_Head			V_Pelvis		
		X1	Y1	Z1	X2	Y2	Z2	X3	Y3	Z3	X4	Y4	Z4	X5	Y5	Z5	X6	Y6	Z6	X7	Y7	Z7	X8	Y8	Z8	X9	Y9	Z9	X10	Y10	Z10	X11	Y11	Z11	X12	Y12	Z12	X13	Y13	Z13	X14	Y14	Z14	X15	Y15	Z15	X16	Y16	Z16	X17	Y17	Z17	X18	Y18	Z18	X19	Y19	Z19	X20	Y20	Z20	X21	Y21	Z21	X22	Y22	Z22	X23	Y23	Z23
																																																																						
729	3.033	466.64642	245.34264	1530.61865	450.9245	313.31906	1431.73145	467.48962	148.70755	1524.95081	632.40729	92.97223	1237.77527	620.94305	82.41748	916.83252	419.42496	184.9485	1046.65332	274.67145	75.72002	1268.85254	240.9953	74.02959	938.04028	443.87619	148.55489	1071.47522	563.40454	-88.60393	1176.06555	622.32343	-173.1123	823.68365	274.853	-145.45953	809.83057	459.2811	-309.57709	835.1142	666.24713	-10.92213	409.27695	636.86273	-183.26881	103.28561	674.72858	11.2906	40.79601	567.84033	-249.69566	46.5011	233.44997	25.04443	442.43002	232.24239	-172.15408	107.61121	211.98035	3.9477	48.45775	291.61261	-251.74004	54.25729	459.20706	231.01334	1478.34119	442.76974	-228.33694	824.8656
730	3.037	466.4606	245.77473	1534.13916	450.73782	313.64017	1435.17908	467.36978	149.13031	1528.55823	632.33575	93.07718	1241.52551	620.7984	82.55334	920.60852	419.27161	185.0304	1050.48425	274.63068	75.76839	1272.68701	240.83156	73.97679	941.85815	443.72058	148.65401	1075.29663	563.40106	-88.50587	1179.78442	622.19214	-172.70256	827.1897	274.7507	-145.55896	813.25745	459.30402	-309.24875	839.20313	665.43158	-13.91216	410.58136	636.78821	-183.50743	103.13954	674.70892	11.28662	40.81333	567.81329	-249.73839	46.33224	233.29619	21.99486	444.14316	232.18448	-172.45169	107.56576	212.01445	3.93226	48.47587	291.58087	-251.83798	54.05451	459.0538	231.38528	1481.86865	442.74332	-228.14122	828.62286
731	3.042	466.27545	246.20253	1537.65454	450.54608	313.95682	1438.6189	467.24603	149.55453	1532.16064	632.26373	93.18243	1245.28101	620.65924	82.69203	924.39404	419.10675	185.10124	1054.31506	274.59528	75.81847	1276.52661	240.67326	73.91818	945.6814	443.55249	148.7435	1079.12378	563.39203	-88.41101	1183.50781	622.07269	-172.28024	830.69958	274.646	-145.64893	816.68353	459.32578	-308.90594	843.2981	664.64435	-16.95229	411.90677	636.71338	-183.74818	103.00584	674.69061	11.28329	40.82896	567.79321	-249.7782	46.17847	233.125	18.92249	445.86664	232.12764	-172.75897	107.52975	212.05406	3.9221	48.49315	291.53305	-251.92612	53.85431	458.89609	231.75568	1485.38977	442.72186	-227.93579	832.38434
732	3.046	466.09564	246.62486	1541.16052	450.34888	314.26675	1442.04565	467.11972	149.98193	1535.75757	632.19165	93.28757	1249.03687	620.52545	82.83533	928.18506	418.93414	185.157	1058.14221	274.56219	75.86021	1280.36438	240.52475	73.85696	949.50824	443.37238	148.81519	1082.95215	563.37488	-88.31631	1187.23047	621.96478	-171.84863	834.21185	274.5433	-145.72534	820.10529	459.34854	-308.5451	847.39465	663.90118	-20.03896	413.25604	636.64362	-183.99718	102.88617	674.67438	11.27858	40.84478	567.78387	-249.81577	46.03948	232.93628	15.82858	447.59778	232.07529	-173.07294	107.50714	212.09618	3.91445	48.51083	291.47534	-251.99872	53.66204	458.73431	232.12439	1488.90161	442.70593	-227.71947	836.14667
733	3.05	465.92429	247.04414	1544.65369	450.14703	314.57016	1445.45496	466.9921	150.41452	1539.34766	632.12024	93.39316	1252.78857	620.39636	82.98463	931.97748	418.75824	185.19543	1061.96277	274.52863	75.88188	1284.19385	240.38634	73.79404	953.33618	443.18124	148.86232	1086.77673	563.3512	-88.218	1190.94678	621.86743	-171.4101	837.72443	274.44537	-145.78859	823.51898	459.3754	-308.16217	851.48804	663.21149	-23.1653	414.63177	636.58435	-184.25749	102.78175	674.66052	11.26992	40.86217	567.78815	-249.85126	45.91622	232.73247	12.71217	449.33237	232.02939	-173.38745	107.49881	212.13475	3.90435	48.53014	291.41684	-252.05386	53.48298	458.56958	232.49237	1492.40137	442.69598	-227.49286	839.90625
